<?xml version="1.0" encoding="UTF-8" standalone="no"?>
<!-- Created with Inkscape (http://www.inkscape.org/) -->

<svg
   width="39.450802mm"
   height="9.5752001mm"
   viewBox="0 0 39.450803 9.5752001"
   version="1.1"
   id="svg5"
   inkscape:version="1.3.2 (091e20ef0f, 2023-11-25, custom)"
   sodipodi:docname="logo.svg"
   xmlns:inkscape="http://www.inkscape.org/namespaces/inkscape"
   xmlns:sodipodi="http://sodipodi.sourceforge.net/DTD/sodipodi-0.dtd"
   xmlns:xlink="http://www.w3.org/1999/xlink"
   xmlns="http://www.w3.org/2000/svg"
   xmlns:svg="http://www.w3.org/2000/svg">
  <sodipodi:namedview
     id="namedview7"
     pagecolor="#ffffff"
     bordercolor="#000000"
     borderopacity="0.25"
     inkscape:showpageshadow="2"
     inkscape:pageopacity="0.0"
     inkscape:pagecheckerboard="0"
     inkscape:deskcolor="#d1d1d1"
     inkscape:document-units="mm"
     showgrid="false"
     inkscape:zoom="13.811486"
     inkscape:cx="45.215989"
     inkscape:cy="26.572086"
     inkscape:window-width="1920"
     inkscape:window-height="1034"
     inkscape:window-x="0"
     inkscape:window-y="25"
     inkscape:window-maximized="1"
     inkscape:current-layer="layer1" />
  <defs
     id="defs2">
    <linearGradient
       inkscape:collect="always"
       id="linearGradient3029">
      <stop
         style="stop-color:#000000;stop-opacity:1;"
         offset="0"
         id="stop3025" />
      <stop
         style="stop-color:#000000;stop-opacity:0;"
         offset="1"
         id="stop3027" />
    </linearGradient>
    <linearGradient
       id="linearGradient3007"
       inkscape:swatch="solid">
      <stop
         style="stop-color:#000000;stop-opacity:1;"
         offset="0"
         id="stop3005" />
    </linearGradient>
    <rect
       x="95.841003"
       y="82.711998"
       width="82.056"
       height="77.459999"
       id="rect3248" />
    <rect
       x="95.841003"
       y="82.711998"
       width="82.056"
       height="77.459999"
       id="rect3248-3" />
    <linearGradient
       inkscape:collect="always"
       xlink:href="#linearGradient3029"
       id="linearGradient3031"
       x1="8.2601995"
       y1="5.5444002"
       x2="31.549999"
       y2="5.5444002"
       gradientUnits="userSpaceOnUse" />
    <filter
       style="color-interpolation-filters:sRGB"
       inkscape:label="Drop Shadow"
       id="filter38"
       x="-0.049309665"
       y="-0.17722117"
       width="1.0986193"
       height="1.3544423">
      <feFlood
         result="flood"
         in="SourceGraphic"
         flood-opacity="1.000000"
         flood-color="rgb(0,0,0)"
         id="feFlood37" />
      <feGaussianBlur
         result="blur"
         in="SourceGraphic"
         stdDeviation="0.500000"
         id="feGaussianBlur37" />
      <feOffset
         result="offset"
         in="blur"
         dx="0.000000"
         dy="0.000000"
         id="feOffset37" />
      <feComposite
         result="comp1"
         operator="in"
         in="flood"
         in2="offset"
         id="feComposite37" />
      <feComposite
         result="comp2"
         operator="over"
         in="SourceGraphic"
         in2="comp1"
         id="feComposite38" />
    </filter>
    <filter
       style="color-interpolation-filters:sRGB"
       inkscape:label="Drop Shadow"
       id="filter40"
       x="-0.040679621"
       y="-0.17607184"
       width="1.0813592"
       height="1.3521437">
      <feFlood
         result="flood"
         in="SourceGraphic"
         flood-opacity="1.000000"
         flood-color="rgb(0,0,0)"
         id="feFlood38" />
      <feGaussianBlur
         result="blur"
         in="SourceGraphic"
         stdDeviation="0.500000"
         id="feGaussianBlur38" />
      <feOffset
         result="offset"
         in="blur"
         dx="0.000000"
         dy="0.000000"
         id="feOffset38" />
      <feComposite
         result="comp1"
         operator="in"
         in="flood"
         in2="offset"
         id="feComposite39" />
      <feComposite
         result="comp2"
         operator="over"
         in="SourceGraphic"
         in2="comp1"
         id="feComposite40" />
    </filter>
    <filter
       style="color-interpolation-filters:sRGB"
       inkscape:label="Drop Shadow"
       id="filter43"
       x="-0.063626389"
       y="-0.37095765"
       width="1.1272528"
       height="1.7419153">
      <feFlood
         result="flood"
         in="SourceGraphic"
         flood-opacity="1.000000"
         flood-color="rgb(0,0,0)"
         id="feFlood42" />
      <feGaussianBlur
         result="blur"
         in="SourceGraphic"
         stdDeviation="0.500000"
         id="feGaussianBlur42" />
      <feOffset
         result="offset"
         in="blur"
         dx="0.000000"
         dy="0.000000"
         id="feOffset42" />
      <feComposite
         result="comp1"
         operator="in"
         in="flood"
         in2="offset"
         id="feComposite42" />
      <feComposite
         result="comp2"
         operator="over"
         in="SourceGraphic"
         in2="comp1"
         id="feComposite43" />
    </filter>
  </defs>
  <g
     inkscape:label="Layer 1"
     inkscape:groupmode="layer"
     id="layer1"
     transform="translate(-0.63519995,-0.8959)">
    <path
       style="fill:#0000b4;fill-opacity:1;stroke-width:0.141373;stroke-linecap:round;stroke-linejoin:round;filter:url(#filter40)"
       d="M 1.8352,3.9439 9.2852,2.0959 31.334,3.1387 31.037,7.0409 5.1311,8.9113 Z"
       id="path756"
       sodipodi:nodetypes="cccccc" />
    <path
       style="fill:#00ac00;fill-opacity:1;stroke-width:0.182322;stroke-linecap:round;stroke-linejoin:round;filter:url(#filter38)"
       d="M 17.783,3.6547 14.55,7.5298 28.969,9.2711 38.886,4.3368 31.026,2.4999 Z"
       id="path1573"
       sodipodi:nodetypes="cccccc" />
    <path
       style="font-size:4.23333px;font-family:CozetteVector;-inkscape-font-specification:'CozetteVector Medium';fill:#ffffff;stroke:#ffffff;stroke-width:0.5;stroke-opacity:0.5;filter:url(#filter43)"
       d="M 8.640345,6.2813054 H 8.9669397 V 6.6079001 H 7.9892225 V 6.2813054 H 8.3158172 V 4.3279379 H 7.9892225 V 4.0034101 H 8.9669397 V 4.3279379 H 8.640345 Z M 9.6180622,6.6079001 V 4.6545326 h 1.3022448 v 0.3245278 h 0.324528 V 6.6079001 H 10.920307 V 4.9790604 H 9.9425899 V 6.6079001 Z M 12.873675,6.2813054 V 4.9790604 H 11.895957 V 4.6545326 h 0.977718 V 3.6768154 h 0.324527 V 6.6079001 H 11.895957 V 6.2813054 Z m -1.302245,0 v -1.302245 h 0.324527 v 1.302245 z m 1.953367,0 v -1.302245 h 0.324528 V 4.6545326 h 0.977717 v 0.3245278 h -0.977717 v 0.3265947 h 0.977717 V 4.9790604 h 0.324528 v 0.6511225 h -1.302245 v 0.6511225 h 0.977717 V 5.9567776 H 15.15157 V 6.2813054 H 14.827042 V 6.6079001 H 13.849325 V 6.2813054 Z m 3.255613,-1.302245 h 0.324527 v 1.302245 H 16.78041 Z m 0,0 h -0.977718 v 1.302245 H 16.78041 V 6.6079001 H 15.802692 V 7.5856174 H 15.478165 V 4.6545326 h 1.302245 z m 0.651122,1.302245 V 4.9790604 H 17.75606 V 4.6545326 h 0.977717 V 4.9790604 H 17.75606 v 0.3265947 h 0.977717 V 4.9790604 h 0.324528 V 5.6301829 H 17.75606 v 0.6511225 h 0.977717 V 5.9567776 h 0.324528 V 6.2813054 H 18.733777 V 6.6079001 H 17.75606 V 6.2813054 Z M 19.3849,6.6079001 V 4.6545326 h 1.302245 v 0.3245278 h 0.324528 V 6.6079001 H 20.687145 V 4.9790604 H 19.709428 V 6.6079001 Z M 22.640512,6.2813054 V 4.9790604 H 21.662795 V 4.6545326 h 0.977717 V 3.6768154 H 22.96504 V 6.6079001 H 21.662795 V 6.2813054 Z m -1.302245,0 v -1.302245 h 0.324528 v 1.302245 z m 1.953368,0 v -1.302245 h 0.324527 V 4.6545326 H 24.59388 V 4.9790604 H 23.616162 V 5.3056551 H 24.59388 V 4.9790604 h 0.324527 V 5.6301829 H 23.616162 V 6.2813054 H 24.59388 V 5.9567776 h 0.324527 V 6.2813054 H 24.59388 V 6.6079001 H 23.616162 V 6.2813054 Z m 1.953367,0.3265947 V 4.6545326 h 1.302245 v 0.3245278 h 0.324527 V 6.6079001 H 26.547247 V 4.9790604 h -0.977718 v 1.6288397 z m 1.953367,-0.3265947 v -1.302245 h 0.324528 V 4.6545326 h 0.977717 v 0.3245278 h 0.324528 V 5.3056551 H 28.500614 V 4.9790604 h -0.977717 v 1.302245 h 0.977717 V 5.9567776 h 0.324528 V 6.2813054 H 28.500614 V 6.6079001 H 27.522897 V 6.2813054 Z m 1.953367,0 V 4.6545326 h 0.324528 v 1.6267728 h 0.977717 V 4.6545326 h 0.324528 v 2.60449 H 30.453981 V 7.5856174 H 29.476264 V 7.2590226 h 0.977717 V 6.6079001 H 29.476264 V 6.2813054 Z"
       id="text487-8-7"
       aria-label="Independency" />
  </g>
</svg>
